 <svg  version="1.0" xmlns="http://www.w3.org/2000/svg"  width="744.000000pt" height="744.000000pt" viewBox="0 0 744.000000 744.000000"  preserveAspectRatio="xMidYMid meet">  <g transform="translate(0.000000,744.000000) scale(0.100000,-0.100000)" fill="#ffffff" stroke="none"> <path d="M2750 5855 c-14 -8 -70 -41 -125 -73 -55 -32 -107 -61 -115 -65 -8 -5 -31 -18 -51 -30 -40 -24 -101 -59 -225 -130 -103 -59 -139 -93 -153 -143 -18 -68 16 -149 74 -175 11 -5 27 -13 35 -18 8 -5 22 -12 30 -16 16 -6 34 -17 97 -58 24 -15 45 -27 47 -27 2 0 75 -41 163 -92 87 -51 172 -99 188 -108 17 -9 41 -23 55 -31 77 -49 420 -249 425 -249 4 0 27 -13 52 -30 24 -16 46 -30 48 -30 1 0 32 -16 67 -36 34 -20 88 -50 118 -67 30 -17 66 -37 80 -44 14 -8 43 -25 65 -38 25 -15 56 -24 84 -25 122 -1 199 139 127 232 -15 20 -34 39 -42 42 -9 3 -39 21 -67 39 -29 19 -101 62 -162 97 -60 35 -169 98 -242 141 -72 44 -134 79 -136 79 -5 0 -193 108 -227 130 -8 6 -24 15 -35 20 -11 6 -33 19 -50 30 -16 10 -52 31 -80 45 -27 14 -63 34 -80 45 -16 10 -52 31 -80 45 -61 33 -75 44 -75 59 0 25 205 139 250 139 32 -1 164 -63 212 -100 7 -6 33 -21 58 -34 25 -13 63 -36 84 -51 21 -16 43 -28 48 -28 4 0 25 -10 46 -23 20 -13 64 -38 97 -56 134 -73 393 -222 660 -381 280 -166 273 -166 479 -42 80 48 167 98 193 113 27 14 109 61 183 104 74 43 160 92 190 108 30 16 61 34 69 40 14 12 48 32 71 43 92 44 125 135 76 212 -38 60 -68 75 -140 69 -56 -4 -115 -29 -206 -87 -25 -17 -214 -126 -230 -134 -8 -4 -42 -22 -75 -41 -33 -19 -69 -39 -80 -45 -11 -6 -33 -19 -50 -29 -85 -55 -166 -91 -203 -91 -41 0 -96 25 -229 106 -40 24 -75 44 -78 44 -2 0 -42 22 -87 49 -46 27 -110 63 -142 81 -33 17 -85 48 -115 68 -31 20 -69 43 -86 52 -29 15 -111 63 -310 180 -143 85 -169 99 -185 107 -8 3 -33 18 -55 32 -133 85 -204 106 -255 76z"/> <path d="M4485 5821 c-28 -16 -87 -51 -130 -78 -11 -7 -33 -20 -50 -28 -126 -64 -160 -103 -160 -184 0 -78 33 -123 108 -146 58 -18 72 -15 168 42 26 16 91 54 146 87 117 69 143 100 143 172 0 113 -127 189 -225 135z"/> <path d="M1590 5182 c-27 -8 -81 -40 -92 -57 -4 -5 -8 -37 -8 -70 0 -71 29 -124 85 -153 40 -20 146 -82 270 -157 50 -30 113 -66 140 -81 28 -15 82 -45 120 -69 39 -23 77 -45 85 -48 8 -4 29 -15 45 -25 17 -10 59 -35 95 -54 68 -38 214 -122 240 -138 8 -5 35 -21 60 -34 25 -13 82 -46 127 -72 44 -27 103 -61 130 -76 26 -15 77 -45 113 -66 91 -55 238 -141 280 -164 157 -89 223 -133 247 -165 l28 -36 5 -1121 c5 -1037 6 -1123 22 -1153 53 -96 203 -96 256 0 16 30 17 116 22 1153 l5 1121 28 36 c16 21 67 60 120 91 51 30 108 63 127 75 19 11 53 30 75 42 42 22 166 96 270 159 33 20 125 74 205 120 80 45 161 92 180 103 19 11 55 30 79 43 24 13 49 28 55 33 6 5 43 26 81 47 39 20 84 46 100 56 17 10 37 21 45 25 8 3 47 25 85 48 39 23 90 53 115 67 25 14 86 49 135 78 50 29 125 73 167 98 43 24 91 59 108 78 27 31 30 42 30 98 0 58 -2 66 -33 96 -48 47 -99 62 -148 45 -59 -21 -348 -181 -479 -266 -19 -12 -64 -39 -100 -59 -105 -59 -329 -189 -407 -236 -40 -24 -75 -44 -78 -44 -3 0 -24 -12 -48 -27 -23 -15 -60 -37 -82 -49 -102 -55 -141 -78 -156 -90 -8 -8 -19 -14 -23 -14 -4 0 -40 -19 -79 -42 -40 -23 -85 -49 -102 -58 -63 -34 -202 -114 -240 -140 -69 -46 -148 -80 -186 -80 -36 0 -119 37 -204 91 -61 40 -233 139 -239 139 -3 0 -39 20 -79 45 -41 25 -78 45 -82 45 -5 0 -16 6 -24 14 -15 12 -54 35 -156 90 -39 22 -100 58 -140 84 -11 6 -27 15 -35 19 -8 3 -78 43 -155 88 -77 45 -176 103 -220 128 -44 25 -107 62 -140 82 -33 20 -118 70 -190 111 -71 41 -137 79 -145 84 -8 6 -22 13 -30 17 -8 4 -48 26 -88 50 -74 43 -140 59 -192 45z"/> <path d="M1618 4528 c-25 -7 -48 -23 -68 -48 -26 -32 -30 -46 -30 -97 0 -88 18 -106 210 -213 30 -17 96 -55 145 -86 50 -30 101 -60 115 -66 14 -7 69 -38 123 -70 53 -32 100 -58 103 -58 19 0 112 -74 129 -102 19 -32 20 -53 20 -845 l1 -812 29 -37 c17 -20 50 -47 75 -61 25 -13 77 -43 115 -66 39 -22 106 -61 150 -87 44 -26 118 -70 165 -98 127 -75 181 -102 204 -102 12 0 44 13 71 28 38 20 53 36 62 62 9 26 12 264 12 930 1 833 0 897 -17 930 -21 43 -84 80 -137 80 -45 0 -106 -35 -127 -73 -10 -17 -14 -179 -16 -732 -1 -390 -2 -724 -2 -741 0 -36 -24 -52 -47 -32 -16 13 -48 33 -73 44 -48 23 -123 80 -135 104 -12 24 -15 154 -16 826 -1 738 -3 802 -19 840 -19 45 -53 72 -183 145 -43 24 -94 54 -115 66 -20 12 -57 34 -82 48 -25 14 -52 29 -60 35 -46 29 -169 100 -174 100 -3 0 -34 17 -68 38 -64 39 -203 116 -248 138 -40 19 -72 22 -112 12z"/> <path d="M5725 4511 c-6 -4 -39 -24 -75 -44 -36 -19 -100 -56 -143 -81 -43 -25 -82 -46 -87 -46 -5 0 -15 -6 -22 -13 -7 -8 -45 -31 -84 -53 -87 -47 -142 -79 -347 -201 -87 -51 -160 -93 -162 -93 -2 0 -72 -40 -155 -90 -83 -49 -153 -90 -155 -90 -2 0 -38 -20 -78 -45 -41 -25 -78 -45 -82 -45 -4 0 -27 -13 -52 -30 -24 -16 -48 -30 -52 -30 -5 0 -25 -18 -45 -40 -34 -37 -36 -44 -36 -105 0 -58 3 -68 31 -100 34 -39 92 -59 136 -49 15 4 46 18 68 31 60 37 342 201 405 235 30 17 73 41 95 54 22 13 60 34 85 46 25 13 64 36 88 51 23 15 59 37 80 48 20 11 51 29 67 39 17 10 46 27 65 37 19 11 80 45 135 78 231 135 215 137 215 -29 0 -103 -3 -126 -20 -154 -18 -29 -105 -94 -148 -109 -9 -3 -24 -12 -32 -18 -8 -7 -46 -30 -85 -50 -38 -21 -86 -48 -105 -60 -19 -12 -55 -33 -80 -47 -42 -24 -115 -66 -305 -178 -239 -140 -284 -166 -324 -187 -25 -14 -56 -33 -69 -44 -14 -10 -28 -19 -33 -19 -19 0 -230 -133 -248 -156 -21 -26 -21 -35 -21 -575 0 -314 4 -558 9 -572 28 -73 153 -97 223 -44 20 16 42 43 49 60 8 22 13 129 16 342 6 599 6 591 28 615 25 28 84 69 150 104 28 15 57 31 65 36 8 5 40 24 70 41 49 28 82 46 195 108 17 9 48 28 70 42 22 15 71 43 109 64 38 21 114 65 170 98 94 56 180 106 350 203 37 21 76 44 85 49 9 6 42 25 73 43 31 18 70 48 87 68 l31 35 0 386 c0 370 -1 387 -20 419 -28 44 -81 74 -134 74 -23 0 -46 -4 -51 -9z"/> <path d="M1566 3819 l-46 -41 0 -68 c0 -68 0 -69 43 -105 37 -32 66 -50 179 -115 102 -58 172 -90 198 -90 45 0 92 23 123 59 51 61 29 186 -38 220 -26 14 -96 53 -221 124 -130 74 -169 77 -238 16z"/> <path d="M4847 2653 c-16 -3 -48 -23 -72 -46 -54 -52 -58 -78 -53 -299 2 -117 8 -171 18 -193 22 -44 75 -75 127 -75 52 0 87 16 128 60 l30 31 0 214 c0 200 -1 215 -21 241 -41 55 -92 77 -157 67z"/> </g> </svg> 